<svg width="236" height="236" viewBox="0 0 236 236" fill="none" xmlns="http://www.w3.org/2000/svg">
<path d="M72.7644 12.784C68.4088 17.1647 66.0133 22.988 66.0133 29.1756C66.0075 35.3661 68.4029 41.1865 72.7586 45.5671C77.1084 49.9419 82.8925 52.3512 89.0389 52.3512C95.197 52.3512 100.987 49.939 105.343 45.5613C109.695 41.1835 112.094 35.3691 112.091 29.1815C112.088 16.3979 101.749 6 89.0419 6C82.8925 6 77.1113 8.40923 72.7644 12.784Z" fill="#4894D3"/>
<path d="M48.2895 10.5972V50.5803C53.1857 51.2803 57.7398 53.5259 61.2952 57.1042C62.4623 58.2788 63.4902 59.5572 64.3696 60.9185C70.4051 67.2783 79.0344 70.9926 88.0784 71.1268C97.1664 71.2553 105.94 67.7767 112.176 61.563C113.195 59.8197 114.445 58.1957 115.912 56.7297C120.384 52.2553 126.339 49.7912 132.663 49.7852C145.741 49.7942 156.381 60.4319 156.381 73.4977C156.381 79.8262 153.913 85.7822 149.438 90.2566C144.956 94.7371 138.996 97.2012 132.66 97.2012C123.971 97.2012 116.359 92.4949 112.235 85.4974C106.233 79.5111 97.8575 76.0226 89.1038 75.9012C79.9689 75.766 71.1495 79.2888 64.9067 85.5616C64.7035 85.766 64.5019 85.9788 64.302 86.1898L64.2291 86.2668C63.3762 87.5555 62.3895 88.7683 61.2777 89.8873C57.7249 93.4605 53.1822 95.7031 48.2895 96.4061V115.87C54.3298 115.034 63.3652 111.861 68.6681 106.806C69.6963 105.03 70.9639 103.377 72.4543 101.887C76.9294 97.4122 82.877 94.9451 89.2035 94.9422C102.279 94.9422 112.919 105.58 112.922 118.656C112.924 124.984 110.454 130.934 105.976 135.411C105.842 135.544 105.707 135.676 105.571 135.807C105.485 135.911 105.398 136.016 105.31 136.12H105.308L105.101 136.244C100.736 140.196 95.1341 142.358 89.2006 142.358C82.877 142.361 76.9236 139.894 72.4485 135.419C71.2747 134.247 70.2391 132.973 69.3499 131.618C63.9998 126.167 56.1948 123.197 48.2895 122.582V139.01C53.2164 139.643 57.8764 141.922 61.526 145.597C62.8609 146.941 64.003 148.42 64.9449 150.003C70.9522 155.994 79.3298 159.487 88.091 159.611C96.4481 159.729 104.541 156.791 110.637 151.485C111.79 149.028 113.375 146.764 115.352 144.787C119.825 140.313 125.779 137.849 132.103 137.843C145.181 137.852 155.822 148.49 155.822 161.555C155.822 167.884 153.354 173.84 148.878 178.314C144.397 182.795 138.436 185.259 132.1 185.259C123.303 185.259 115.611 180.435 111.523 173.293C105.582 167.731 97.5273 164.507 89.1164 164.383C79.9954 164.248 71.1973 167.755 64.9598 174.005C64.0266 175.578 62.8941 177.048 61.5669 178.383C57.9118 182.06 53.2247 184.337 48.2895 184.969V229.827C48.2895 230.138 48.0374 230.39 47.7264 230.39H37.5631C37.2521 230.39 37 230.138 37 229.827V10.5972C37 10.2863 37.2521 10.0342 37.5631 10.0342H47.7264C48.0374 10.0342 48.2895 10.2863 48.2895 10.5972Z" fill="#4894D3"/>
<path d="M152.639 117.753C152.639 111.565 155.035 105.742 159.39 101.361C163.737 96.9864 169.524 94.5772 175.671 94.5713C188.381 94.5801 198.722 104.981 198.722 117.756C198.722 123.943 196.324 129.767 191.974 134.141C187.619 138.522 181.826 140.931 175.668 140.931C162.972 140.931 152.642 130.53 152.639 117.753Z" fill="#4894D3"/>
<path d="M64.3755 205.584C64.3755 199.39 66.7739 193.564 71.1266 189.186C75.4764 184.815 81.2605 182.405 87.404 182.402C93.565 182.402 99.352 184.815 103.705 189.192C108.057 193.567 110.456 199.39 110.453 205.587C110.456 211.768 108.057 217.586 103.708 221.961C99.355 226.341 93.562 228.754 87.3981 228.754C81.2518 228.756 75.4735 226.347 71.1208 221.97C66.768 217.592 64.3726 211.771 64.3755 205.584Z" fill="#4894D3"/>
</svg>
