<svg width="140" height="140" viewBox="0 0 140 140" fill="none" xmlns="http://www.w3.org/2000/svg">
<path d="M121.4 67.1068C119.66 68.8574 118.703 71.1844 118.703 73.657C118.704 78.763 122.832 82.9193 127.905 82.9193C130.366 82.9193 132.681 81.9565 134.421 80.206C136.159 78.4578 137.118 76.1308 137.118 73.6582C137.118 68.5533 132.985 64.3971 127.906 64.3936C125.45 64.3959 123.137 65.3586 121.4 67.1068Z" fill="#4894D3"/>
<path d="M75.6386 46.7162C76.1546 46.7186 76.6997 46.7737 77.3254 46.8888C77.4982 46.9229 77.678 46.9663 77.8554 47.0109C78.215 47.1013 78.5699 47.2105 78.9107 47.3361L78.9714 47.3596C79.1419 47.4254 79.3065 47.4876 79.4676 47.5615C79.8084 47.72 80.1516 47.9091 80.5229 48.1427C80.5229 48.1427 80.7715 48.2801 80.8112 48.3036L82.3474 49.6338C82.4548 49.7477 82.5517 49.8721 82.6486 49.9966C82.7175 50.0823 82.7864 50.1703 82.8436 50.2373C82.9089 50.3194 82.9778 50.4005 83.049 50.4826C83.1179 50.5613 83.1903 50.6411 83.2498 50.7292L83.307 50.8161L83.3782 50.8912C85.7923 53.466 89.2641 54.9711 92.9039 55.0251C96.5566 55.0768 100.082 53.6703 102.577 51.1601C102.683 51.0521 102.788 50.9429 102.892 50.8302L103.002 50.6928C103.02 50.667 103.042 50.6447 103.064 50.6224C103.117 50.5613 103.173 50.4991 103.24 50.4145C103.432 50.1621 103.63 49.9003 103.833 49.6784L105.38 48.3235C105.422 48.2965 105.466 48.2754 105.51 48.2484C105.576 48.2132 105.643 48.1768 105.723 48.1286C106.115 47.8856 106.438 47.7071 106.752 47.5639C106.93 47.4829 107.11 47.416 107.299 47.3432C107.635 47.2175 107.997 47.1037 108.343 47.0144L108.528 46.971C108.641 46.9428 108.753 46.9146 108.878 46.8912C109.525 46.7726 110.055 46.715 110.546 46.7139C115.624 46.7174 119.758 50.8748 119.758 55.9785C119.757 58.4511 118.8 60.7746 117.061 62.5239C115.321 64.2745 113.007 65.2384 110.545 65.2384C110.044 65.2384 109.516 65.182 108.861 65.0599C108.718 65.0365 108.585 65.0001 108.45 64.9648L108.375 64.9461C107.971 64.8404 107.619 64.7312 107.287 64.6068C107.104 64.5375 106.927 64.4741 106.75 64.3884C106.449 64.251 106.129 64.0772 105.71 63.8213C105.646 63.7802 105.42 63.6557 105.378 63.6299L103.868 62.3138C103.757 62.194 103.659 62.0649 103.557 61.9357L103.373 61.7021C103.309 61.6234 103.241 61.5471 103.174 61.472C103.164 61.4602 103.152 61.4473 103.143 61.4368L103.136 61.3757L102.842 61.061C100.428 58.4898 96.9523 56.9835 93.3137 56.933C89.6633 56.879 86.139 58.2867 83.6444 60.7934C83.537 60.9014 83.4308 61.0153 83.3257 61.1256L83.2708 61.1937L83.23 61.2466C83.209 61.2724 83.1844 61.2959 83.1623 61.3229C83.1027 61.3851 83.0479 61.452 82.9825 61.5319L82.8879 61.6551C82.7175 61.877 82.5552 62.0919 82.3895 62.2739L80.8089 63.6464C80.7727 63.6687 80.4773 63.8319 80.4773 63.8319C80.1365 64.0514 79.7956 64.2381 79.4652 64.3919C79.2913 64.4706 79.1103 64.5387 78.9247 64.6079C78.5757 64.7382 78.2243 64.8474 77.8426 64.9437C77.671 64.9907 77.3535 65.0306 77.1912 65.0623C76.5328 65.1832 75.4927 65.2361 75.4927 65.2361V65.229V46.7221C75.4927 46.7221 75.5966 46.7162 75.6386 46.7162Z" fill="#4894D3"/>
<path d="M77.0689 82.2509C77.2358 82.2838 77.5394 82.3272 77.7203 82.373C78.0974 82.4681 78.5164 82.5785 78.8573 82.7065C79.0476 82.7781 79.2671 82.845 79.4375 82.9225C79.7585 83.0716 80.1169 83.2606 80.5068 83.5072L80.6784 83.5987C80.7286 83.6257 80.7823 83.6516 80.8255 83.6798L82.3512 85.0029C82.4575 85.1133 82.5509 85.2354 82.6477 85.3563C82.7155 85.4432 82.7843 85.5301 82.8392 85.597C82.9081 85.6827 82.9769 85.7637 83.0482 85.8459C83.117 85.9258 83.1894 86.0044 83.2466 86.0925L83.305 86.177L83.3762 86.2522C85.7926 88.8246 89.2679 90.3321 92.9089 90.3837C96.5592 90.4354 100.083 89.0277 102.577 86.5198C102.684 86.4118 102.789 86.3015 102.893 86.1888L102.952 86.1207L102.994 86.0655C103.014 86.0373 103.038 86.0126 103.061 85.988C103.117 85.9246 103.176 85.8588 103.234 85.7837L103.311 85.6839C103.49 85.4514 103.661 85.2307 103.835 85.037L105.38 83.6868C105.423 83.661 105.467 83.6375 105.511 83.6128C105.581 83.5729 105.653 83.533 105.729 83.486C106.09 83.2594 106.425 83.0763 106.76 82.9225C106.931 82.8438 107.109 82.7757 107.301 82.7041C107.625 82.5832 107.984 82.4716 108.366 82.3742L108.442 82.3542C108.583 82.3178 108.72 82.2814 108.89 82.2521C109.505 82.1335 110.047 82.0771 110.55 82.0771C115.626 82.0771 119.761 86.231 119.762 91.3359C119.761 93.8097 118.802 96.1355 117.063 97.8849C115.321 99.6354 113.007 100.599 110.547 100.599C110.052 100.601 109.522 100.544 108.89 100.428C108.732 100.397 108.583 100.359 108.434 100.321L108.374 100.306C107.99 100.207 107.628 100.094 107.288 99.9653C107.103 99.8961 106.923 99.8303 106.753 99.7528C106.447 99.6119 106.12 99.4311 105.687 99.1623C105.687 99.1623 105.452 99.0331 105.413 99.0096L105.386 98.9826L105.345 98.9603L103.88 97.6829C103.762 97.5585 103.656 97.4211 103.552 97.2861L103.373 97.0619C103.311 96.9855 103.251 96.9151 103.189 96.8458C103.113 96.7589 103.036 96.6779 102.972 96.5828L102.916 96.4971L102.845 96.4232C100.431 93.8508 96.9585 92.3444 93.3186 92.2904C89.6659 92.2364 86.1428 93.6441 83.6493 96.1519C83.5419 96.26 83.4357 96.3703 83.3295 96.4842L83.2723 96.5464L83.2198 96.6216C83.2011 96.6462 83.1801 96.6674 83.1602 96.6897C83.1042 96.7519 83.0482 96.8141 82.9804 96.8987L82.9408 96.9503C82.754 97.198 82.573 97.4329 82.3898 97.6336L80.8103 99.0096C80.773 99.0331 80.7333 99.0519 80.6947 99.0742L80.4823 99.194C80.1449 99.4088 79.8041 99.5967 79.4772 99.7493C79.2951 99.8338 79.113 99.9031 78.9297 99.9712C78.5713 100.104 78.2199 100.213 77.8616 100.305C77.6841 100.349 77.2358 100.393 77.0712 100.426C76.581 100.516 75.4941 100.559 75.4941 100.579V82.0971C75.4941 82.1159 76.5669 82.1582 77.0689 82.2509Z" fill="#4894D3"/>
<path d="M82.2935 84.784C84.0329 86.5345 84.9528 88.8592 84.9528 91.3318C84.9528 93.8067 84.0504 96.1337 82.3099 97.8855C80.602 99.6031 78.3303 100.556 75.9956 100.588V82.0801C78.3303 82.1118 80.588 83.0663 82.2935 84.784Z" fill="#4894D3"/>
<path d="M85.2984 69.1351C85.4034 69.0295 85.5167 68.9214 85.6182 68.8111L85.6801 68.7536L85.735 68.6737L85.791 68.6103C85.854 68.5399 85.9159 68.4671 85.9591 68.4119L86.0315 68.318C86.2136 68.0796 86.3875 67.8589 86.5638 67.6652L88.2401 66.5974C88.2822 66.5716 88.3852 66.4071 88.3852 66.2056C88.8364 66.6568 88.7605 66.2491 88.8364 66.2056C89.2052 65.9767 89.16 65.9034 89.4799 65.7543C89.662 65.6721 90.0135 65.8226 90.1898 65.7545C90.5166 65.6324 90.7254 65.4344 91.1048 65.3323C91.2753 65.2912 91.1048 65.3323 91.9943 64.9937C92.613 64.8727 92.7648 64.9917 93.282 64.9929C95.7416 64.9917 98.0518 65.6657 99.7912 67.4139C101.532 69.1633 102.49 71.7287 102.49 74.2024C102.488 76.6774 101.529 78.9234 99.79 80.9968H99.7889C98.0495 82.0335 95.7369 83.467 93.282 83.4647C92.7672 83.4635 92.2313 83.2874 91.6383 83.177C91.4539 83.1395 91.2648 83.035 91.1048 82.9974C90.7243 82.8953 90.3647 82.7497 90.004 82.6147C89.8266 82.5524 89.662 82.4714 89.4799 82.3857C89.1518 82.2343 88.8063 82.0394 88.4351 81.8081C88.372 81.7705 88.1643 81.6519 88.1281 81.6296L86.6292 80.3311L86.5941 80.2947C86.4938 80.1949 86.4109 80.0834 86.3221 79.9718C86.2451 79.872 86.1657 79.7722 86.119 79.7194C86.0467 79.6267 85.9708 79.5351 85.8926 79.4458C85.8284 79.3684 85.7618 79.2956 85.7046 79.211L85.6451 79.123L85.5727 79.3566C83.1586 76.7854 79.4055 75.5385 75.7633 75.5385C75.7563 75.5385 75.9851 75.5385 75.9851 75.5385V72.992C78.3199 72.9415 82.8889 71.5572 85.2984 69.1351Z" fill="#4894D3"/>
<path d="M82.2013 49.4213C83.9407 51.1718 84.9061 53.4988 84.9073 55.9738C84.9061 58.4464 83.9337 60.771 82.1943 62.5216C80.5331 64.1923 78.3303 65.1351 75.9956 65.2161V46.7256C78.3303 46.8042 80.539 47.7482 82.2013 49.4213Z" fill="#4894D3"/>
<path d="M86.7842 31.7109C85.0437 33.4615 84.0864 35.7885 84.0864 38.2611C84.0841 40.7349 85.0413 43.0607 86.7819 44.8113C88.5201 46.5595 90.8315 47.5222 93.2876 47.5222C95.7484 47.5222 98.0621 46.5583 99.8027 44.8089C101.542 43.0595 102.5 40.736 102.499 38.2634C102.498 33.155 98.3668 29 93.2888 29C90.8315 29 88.5212 29.9627 86.7842 31.7109Z" fill="#4894D3"/>
<path d="M86.1299 102.202C84.3905 103.952 83.4321 106.28 83.4321 108.755C83.431 111.227 84.3882 113.553 86.1276 115.302C87.8669 117.052 90.176 118.015 92.6321 118.013C95.0953 118.013 97.4101 117.049 99.1495 115.299C100.888 113.551 101.846 111.226 101.845 108.756C101.846 106.28 100.888 103.953 99.1483 102.205C97.409 100.455 95.0964 99.4912 92.6345 99.4912C90.1795 99.4924 87.8681 100.455 86.1299 102.202Z" fill="#4894D3"/>
<path d="M76.504 30.6123H72.9927C72.7165 30.6123 72.4927 30.8362 72.4927 31.1123V118.168C72.4927 118.444 72.7165 118.668 72.9927 118.668H76.504C76.7802 118.668 77.004 118.444 77.004 118.168V31.1123C77.004 30.8362 76.7802 30.6123 76.504 30.6123Z" fill="#4894D3"/>
<path d="M86.6605 67.317C84.8698 69.1073 83.8838 71.4881 83.8838 74.0169C83.8803 76.5481 84.8664 78.9266 86.6581 80.7169C88.4464 82.5049 90.8254 83.4908 93.3524 83.4896C95.8851 83.4896 98.2664 82.5037 100.056 80.7135C101.845 78.9243 102.833 76.5469 102.831 74.0181C102.83 68.7929 98.5786 64.542 93.3535 64.542C90.8254 64.5431 88.4487 65.529 86.6605 67.317Z" fill="#4894D3"/>
<path d="M104.026 49.2722C102.235 51.0626 101.25 53.4426 101.25 55.9715C101.252 61.1939 105.499 65.4448 110.719 65.4448C113.251 65.4448 115.633 64.4601 117.424 62.6697C119.212 60.8817 120.198 58.5017 120.198 55.9727C120.198 50.7516 115.946 46.5007 110.72 46.4971C108.193 46.4995 105.814 47.4841 104.026 49.2722Z" fill="#4894D3"/>
<path d="M103.803 84.4606C102.012 86.2511 101.027 88.6311 101.027 91.16C101.028 96.3824 105.275 100.633 110.495 100.633C113.027 100.633 115.409 99.6486 117.2 97.8582C118.988 96.0702 119.974 93.6901 119.974 91.1612C119.974 85.94 115.723 81.6891 110.496 81.6855C107.969 81.6879 105.59 82.6726 103.803 84.4606Z" fill="#4894D3"/>
<path d="M4 70.0002V43.8184H20.4148V47.2189H7.95028V55.1962H19.5582V58.584H7.95028V66.5996H20.5682V70.0002H4Z" fill="#4894D3"/>
<path d="M26.8998 43.8184L34.1867 65.1422H34.4807L41.7677 43.8184H46.0375L36.6157 70.0002H32.0517L22.6299 43.8184H26.8998Z" fill="#4894D3"/>
<path d="M48.2782 70.0002H44.085L53.5069 43.8184H58.0708L67.4927 70.0002H63.2995L55.8975 48.574H55.693L48.2782 70.0002ZM48.9813 59.7473H62.5836V63.0712H48.9813V59.7473Z" fill="#4894D3"/>
<path d="M10.4752 77.8184V104H6.52492V77.8184H10.4752Z" fill="#4894D3"/>
<path d="M39.4138 86.3326H35.4251C35.2717 85.4803 34.9862 84.7303 34.5686 84.0826C34.151 83.4348 33.6396 82.8851 33.0345 82.4334C32.4294 81.9817 31.7519 81.6408 31.0019 81.4107C30.2604 81.1806 29.472 81.0655 28.6368 81.0655C27.1283 81.0655 25.7774 81.4448 24.5842 82.2033C23.3996 82.9618 22.4621 84.074 21.7717 85.54C21.0899 87.0059 20.749 88.7956 20.749 90.9093C20.749 93.04 21.0899 94.8382 21.7717 96.3042C22.4621 97.7701 23.4038 98.878 24.597 99.628C25.7902 100.378 27.1325 100.753 28.624 100.753C29.4507 100.753 30.2348 100.642 30.9763 100.421C31.7263 100.191 32.4038 99.8539 33.009 99.4107C33.6141 98.9675 34.1254 98.4263 34.543 97.7871C34.9692 97.1394 35.2632 96.3979 35.4251 95.5627L39.4138 95.5755C39.2007 96.8624 38.7874 98.0471 38.1737 99.1294C37.5686 100.203 36.7888 101.132 35.8342 101.916C34.8882 102.692 33.8058 103.293 32.5871 103.719C31.3683 104.145 30.0388 104.358 28.5984 104.358C26.3314 104.358 24.3115 103.821 22.5388 102.747C20.7661 101.665 19.3683 100.118 18.3456 98.1067C17.3314 96.0953 16.8243 93.6962 16.8243 90.9093C16.8243 88.1138 17.3357 85.7147 18.3584 83.7118C19.3811 81.7005 20.7788 80.1578 22.5516 79.084C24.3243 78.0016 26.3399 77.4604 28.5984 77.4604C29.9876 77.4604 31.2831 77.6607 32.4848 78.0613C33.695 78.4533 34.7817 79.0329 35.7447 79.7999C36.7078 80.5584 37.5047 81.4874 38.1354 82.5868C38.7661 83.6777 39.1922 84.9263 39.4138 86.3326Z" fill="#4894D3"/>
<path d="M59.8605 84.6962C59.7242 83.486 59.1617 82.5485 58.173 81.8837C57.1844 81.2104 55.9401 80.8738 54.4401 80.8738C53.3662 80.8738 52.4372 81.0442 51.6531 81.3851C50.8691 81.7175 50.2597 82.1777 49.825 82.7658C49.3989 83.3453 49.1858 84.0059 49.1858 84.7473C49.1858 85.3695 49.3307 85.9064 49.6205 86.3581C49.9188 86.8098 50.3066 87.1891 50.7838 87.4959C51.2696 87.7942 51.7895 88.0456 52.3435 88.2502C52.8975 88.4462 53.4301 88.6081 53.9415 88.736L56.4983 89.4007C57.3335 89.6053 58.1901 89.8823 59.0679 90.2317C59.9458 90.5811 60.7597 91.0414 61.5097 91.6124C62.2597 92.1834 62.8648 92.8908 63.325 93.7346C63.7938 94.5783 64.0281 95.5882 64.0281 96.7644C64.0281 98.2473 63.6446 99.5641 62.8776 100.715C62.1191 101.865 61.0154 102.773 59.5665 103.438C58.1262 104.102 56.3833 104.435 54.3378 104.435C52.3776 104.435 50.6816 104.124 49.2497 103.502C47.8179 102.879 46.6972 101.997 45.8875 100.855C45.0779 99.7047 44.6304 98.3411 44.5452 96.7644H48.5083C48.585 97.7104 48.8918 98.4988 49.4287 99.1294C49.9742 99.7516 50.6688 100.216 51.5125 100.523C52.3648 100.821 53.298 100.97 54.3122 100.97C55.4287 100.97 56.4216 100.796 57.2909 100.446C58.1688 100.088 58.8591 99.5939 59.362 98.9632C59.8648 98.324 60.1162 97.5783 60.1162 96.726C60.1162 95.9505 59.8946 95.3155 59.4514 94.8212C59.0168 94.3269 58.4245 93.9178 57.6745 93.5939C56.933 93.2701 56.0935 92.9846 55.156 92.7374L52.0622 91.8936C49.9656 91.3226 48.3037 90.4831 47.0764 89.3752C45.8577 88.2672 45.2483 86.8013 45.2483 84.9775C45.2483 83.4689 45.6574 82.1522 46.4756 81.0272C47.2938 79.9022 48.4017 79.0286 49.7995 78.4064C51.1972 77.7757 52.7739 77.4604 54.5296 77.4604C56.3023 77.4604 57.8662 77.7715 59.2213 78.3936C60.585 79.0158 61.6588 79.8723 62.4429 80.9632C63.227 82.0456 63.6361 83.29 63.6702 84.6962H59.8605Z" fill="#4894D3"/>
</svg>
